<?xml version="1.0" encoding="utf-8"?>
<svg version="1.1" xmlns:xlink="http://www.w3.org/1999/xlink" width="324px" height="210px" xmlns="http://www.w3.org/2000/svg">
  <g transform="matrix(1 0 0 1 -617 -129 )">
    <path d="M 617 129  L 941 129  L 941 339  L 617 339  L 617 129  " fill-rule="nonzero" fill="#cccccc" stroke="none" />
    <path d="M 632 144  L 926 144  L 926 324  L 632 324  L 632 144  " fill-rule="nonzero" fill="#ffffff" stroke="none" />
    <path d="M 801.23 192  C 792.41 192  785.48 185.07  785.48 176.25  C 785.48 167.43  792.41 160.5  801.23 160.5  C 810.0500000000001 160.5  816.98 167.43  816.98 176.25  C 816.98 185.07  810.0500000000001 192  801.23 192  " fill-rule="nonzero" fill="#cccccc" stroke="none" />
    <path d="M 638 319  L 638 226.05  L 708.75 183.79999999999998  L 807.8 253.27777777777777  L 864.4 209.14999999999998  L 921 253.27777777777777  L 921 319  L 638 319  " fill-rule="nonzero" fill="#169bd5" stroke="none" />
  </g>
</svg>