<?xml version="1.0" encoding="utf-8"?>
<svg version="1.1" xmlns:xlink="http://www.w3.org/1999/xlink" width="541px" height="319px" xmlns="http://www.w3.org/2000/svg">
  <g transform="matrix(1 0 0 1 -350 -227 )">
    <path d="M 350 227  L 891 227  L 891 546  L 350 546  L 350 227  " fill-rule="nonzero" fill="#cccccc" stroke="none" />
    <path d="M 372 249  L 869 249  L 869 524  L 372 524  L 372 249  " fill-rule="nonzero" fill="#ffffff" stroke="none" />
    <path d="M 655.2449999999999 322.70000000000005  C 641.8469999999999 322.70000000000005  631.3199999999999 312.17300000000006  631.3199999999999 298.77500000000003  C 631.3199999999999 285.377  641.8469999999999 274.85  655.2449999999999 274.85  C 668.6429999999999 274.85  679.17 285.377  679.17 298.77500000000003  C 679.17 312.17300000000006  668.6429999999999 322.70000000000005  655.2449999999999 322.70000000000005  " fill-rule="nonzero" fill="#cccccc" stroke="none" />
    <path d="M 380 516  L 380 373.54999999999995  L 500.25 308.79999999999995  L 668.5999999999999 424.3685767097967  L 764.8 347.65  L 861 424.3685767097967  L 861 516  L 380 516  " fill-rule="nonzero" fill="#169bd5" stroke="none" />
  </g>
</svg>