<?xml version="1.0" encoding="utf-8"?>
<svg version="1.1" xmlns:xlink="http://www.w3.org/1999/xlink" width="40px" height="40px" xmlns="http://www.w3.org/2000/svg">
  <defs>
    <filter x="79px" y="147px" width="40px" height="40px" filterUnits="userSpaceOnUse" id="filter3">
      <feOffset dx="1" dy="1" in="SourceAlpha" result="shadowOffsetInner" />
      <feGaussianBlur stdDeviation="2.5" in="shadowOffsetInner" result="shadowGaussian" />
      <feComposite in2="shadowGaussian" operator="atop" in="SourceAlpha" result="shadowComposite" />
      <feColorMatrix type="matrix" values="0 0 0 0 0  0 0 0 0 0  0 0 0 0 0  0 0 0 0.6980392156862745 0  " in="shadowComposite" />
    </filter>
    <g id="widget4">
      <path d="M 98 151  C 106.4 151  113 157.6  113 166  C 113 174.4  106.4 181  98 181  C 89.6 181  83 174.4  83 166  C 83 157.6  89.6 151  98 151  Z " fill-rule="nonzero" fill="#00c2ff" stroke="none" />
      <path d="M 98 151.5  C 106.12 151.5  112.5 157.88  112.5 166  C 112.5 174.12  106.12 180.5  98 180.5  C 89.88 180.5  83.5 174.12  83.5 166  C 83.5 157.88  89.88 151.5  98 151.5  Z " stroke-width="1" stroke="#ffffff" fill="none" />
    </g>
  </defs>
  <g transform="matrix(1 0 0 1 -79 -147 )">
    <use xlink:href="#widget4" filter="url(#filter3)" />
    <use xlink:href="#widget4" />
  </g>
</svg>